# xmcd
#
# Track frame offsets:
#	150
#	11739
#	23152
#	35568
#	47125
#	61803
#	73524
#	94781
#	109616
#	127409
#	140619
#	151837
#	168986
#	185428
#	199274
#	219843
#	236365
#	252478
#	272353
#	287258
#
# Disc length: 4102 seconds
#
# Revision: 0
# Processed by: cddbd v1.5.1PL2 Copyright (c) Steve Scherf et al.
# Submitted via: EasyCDDAExtractor 8.0.1.1
#
DISCID=18100414
DTITLE=Richard Anthony - 1964/1979
DYEAR=1999
DGENRE=Chanson
TTITLE0=Se hai bisogno di un amico
TTITLE1=Ragazze d'oggi
TTITLE2=America
TTITLE3=Tibo
TTITLE4=Un instant de bonheur
TTITLE5=Frappe chez ta voisine
TTITLE6=Le rendez-vous
TTITLE7=Si tu fais semblant
TTITLE8=L'amour se meurt entre mes mains
TTITLE9=De la musique républicaine
TTITLE10=Croix de bois, croix de fer
TTITLE11=Embrasse-moi
TTITLE12=A laube du dernier jour
TTITLE13=Tu peux dormir tranquille
TTITLE14=J'irai
TTITLE15=Pourquoi chercher ailleurs
TTITLE16=New York 31
TTITLE17=La fille folle de l'alambra
TTITLE18=San Diego
TTITLE19=I've you got you under my skin
EXTD=
EXTT0=
EXTT1=
EXTT2=
EXTT3=
EXTT4=
EXTT5=
EXTT6=
EXTT7=
EXTT8=
EXTT9=
EXTT10=
EXTT11=
EXTT12=
EXTT13=
EXTT14=
EXTT15=
EXTT16=
EXTT17=
EXTT18=
EXTT19=
PLAYORDER=
